<mxfile host="Electron" modified="2024-02-29T18:33:05.126Z" agent="Mozilla/5.0 (Windows NT 10.0; Win64; x64) AppleWebKit/537.36 (KHTML, like Gecko) draw.io/23.1.5 Chrome/120.0.6099.109 Electron/28.1.0 Safari/537.36" etag="7tPnBmP9cozA6CAcmEyI" version="23.1.5" type="device">
  <diagram name="Page-1" id="WOzJ3g-ulavPAEOZObli">
    <mxGraphModel dx="1018" dy="686" grid="0" gridSize="10" guides="1" tooltips="1" connect="1" arrows="1" fold="1" page="1" pageScale="1" pageWidth="827" pageHeight="1169" background="#ffffff" math="0" shadow="0">
      <root>
        <mxCell id="0" />
        <mxCell id="1" parent="0" />
        <mxCell id="5veiTLs6AMyqryEThXQq-1" value="" style="image;aspect=fixed;perimeter=ellipsePerimeter;html=1;align=center;shadow=0;dashed=0;spacingTop=3;image=img/lib/active_directory/databases.svg;" vertex="1" parent="1">
          <mxGeometry x="204" y="627" width="50" height="49" as="geometry" />
        </mxCell>
        <mxCell id="5veiTLs6AMyqryEThXQq-2" value="" style="image;aspect=fixed;perimeter=ellipsePerimeter;html=1;align=center;shadow=0;dashed=0;spacingTop=3;image=img/lib/active_directory/databases.svg;" vertex="1" parent="1">
          <mxGeometry x="574" y="627" width="50" height="49" as="geometry" />
        </mxCell>
        <mxCell id="5veiTLs6AMyqryEThXQq-15" style="edgeStyle=orthogonalEdgeStyle;rounded=0;orthogonalLoop=1;jettySize=auto;html=1;entryX=0;entryY=0.5;entryDx=0;entryDy=0;curved=1;strokeColor=#666666;startArrow=classic;startFill=1;fillColor=#f5f5f5;gradientColor=#b3b3b3;" edge="1" parent="1" source="5veiTLs6AMyqryEThXQq-3" target="5veiTLs6AMyqryEThXQq-7">
          <mxGeometry relative="1" as="geometry" />
        </mxCell>
        <mxCell id="5veiTLs6AMyqryEThXQq-3" value="" style="image;aspect=fixed;perimeter=ellipsePerimeter;html=1;align=center;shadow=0;dashed=0;spacingTop=3;image=img/lib/active_directory/databases.svg;" vertex="1" parent="1">
          <mxGeometry x="160" y="251" width="50" height="49" as="geometry" />
        </mxCell>
        <mxCell id="5veiTLs6AMyqryEThXQq-16" style="edgeStyle=orthogonalEdgeStyle;rounded=1;orthogonalLoop=1;jettySize=auto;html=1;entryX=0;entryY=0.5;entryDx=0;entryDy=0;strokeColor=#666666;fillColor=#f5f5f5;gradientColor=#b3b3b3;curved=0;" edge="1" parent="1" source="5veiTLs6AMyqryEThXQq-4" target="5veiTLs6AMyqryEThXQq-7">
          <mxGeometry relative="1" as="geometry" />
        </mxCell>
        <mxCell id="5veiTLs6AMyqryEThXQq-18" style="edgeStyle=orthogonalEdgeStyle;rounded=0;orthogonalLoop=1;jettySize=auto;html=1;entryX=0.5;entryY=0;entryDx=0;entryDy=0;fillColor=#f5f5f5;gradientColor=#b3b3b3;strokeColor=#666666;startArrow=classic;startFill=1;" edge="1" parent="1" source="5veiTLs6AMyqryEThXQq-4" target="5veiTLs6AMyqryEThXQq-3">
          <mxGeometry relative="1" as="geometry" />
        </mxCell>
        <mxCell id="5veiTLs6AMyqryEThXQq-4" value="" style="image;aspect=fixed;perimeter=ellipsePerimeter;html=1;align=center;shadow=0;dashed=0;spacingTop=3;image=img/lib/active_directory/databases.svg;" vertex="1" parent="1">
          <mxGeometry x="164.59" y="167" width="40.82" height="40" as="geometry" />
        </mxCell>
        <mxCell id="5veiTLs6AMyqryEThXQq-17" style="edgeStyle=orthogonalEdgeStyle;rounded=0;orthogonalLoop=1;jettySize=auto;html=1;entryX=0.5;entryY=1;entryDx=0;entryDy=0;fillColor=#f5f5f5;gradientColor=#b3b3b3;strokeColor=#666666;startArrow=classic;startFill=1;" edge="1" parent="1" source="5veiTLs6AMyqryEThXQq-6" target="5veiTLs6AMyqryEThXQq-7">
          <mxGeometry relative="1" as="geometry" />
        </mxCell>
        <mxCell id="5veiTLs6AMyqryEThXQq-6" value="&lt;h1&gt;&lt;span style=&quot;background-color: rgb(255, 255, 255);&quot;&gt;API GATEWAY&lt;/span&gt;&lt;/h1&gt;" style="rounded=1;whiteSpace=wrap;html=1;fillColor=none;strokeColor=#000000;dashed=1;fontColor=#000000;" vertex="1" parent="1">
          <mxGeometry x="135" y="335" width="550" height="90" as="geometry" />
        </mxCell>
        <mxCell id="5veiTLs6AMyqryEThXQq-7" value="Frontend &lt;br&gt;Microservice" style="rounded=1;whiteSpace=wrap;html=1;fillColor=#dae8fc;strokeColor=#6c8ebf;gradientColor=#7ea6e0;" vertex="1" parent="1">
          <mxGeometry x="320" y="171" width="180" height="80" as="geometry" />
        </mxCell>
        <mxCell id="5veiTLs6AMyqryEThXQq-11" style="edgeStyle=orthogonalEdgeStyle;rounded=0;orthogonalLoop=1;jettySize=auto;html=1;entryX=0.5;entryY=0;entryDx=0;entryDy=0;fillColor=#f5f5f5;gradientColor=#b3b3b3;strokeColor=#666666;startArrow=classic;startFill=1;" edge="1" parent="1" source="5veiTLs6AMyqryEThXQq-8" target="5veiTLs6AMyqryEThXQq-1">
          <mxGeometry relative="1" as="geometry" />
        </mxCell>
        <mxCell id="5veiTLs6AMyqryEThXQq-13" style="edgeStyle=orthogonalEdgeStyle;rounded=0;orthogonalLoop=1;jettySize=auto;html=1;entryX=0.5;entryY=1;entryDx=0;entryDy=0;fillColor=#f5f5f5;gradientColor=#b3b3b3;strokeColor=#666666;startArrow=classic;startFill=1;" edge="1" parent="1" source="5veiTLs6AMyqryEThXQq-8" target="5veiTLs6AMyqryEThXQq-6">
          <mxGeometry relative="1" as="geometry">
            <Array as="points">
              <mxPoint x="229" y="482" />
              <mxPoint x="410" y="482" />
            </Array>
          </mxGeometry>
        </mxCell>
        <mxCell id="5veiTLs6AMyqryEThXQq-8" value="Users" style="rounded=1;whiteSpace=wrap;html=1;fillColor=#dae8fc;strokeColor=#6c8ebf;gradientColor=#7ea6e0;" vertex="1" parent="1">
          <mxGeometry x="139" y="505" width="180" height="80" as="geometry" />
        </mxCell>
        <mxCell id="5veiTLs6AMyqryEThXQq-12" style="edgeStyle=orthogonalEdgeStyle;rounded=0;orthogonalLoop=1;jettySize=auto;html=1;entryX=0.5;entryY=0;entryDx=0;entryDy=0;fillColor=#f5f5f5;gradientColor=#b3b3b3;strokeColor=#666666;startArrow=classic;startFill=1;" edge="1" parent="1" source="5veiTLs6AMyqryEThXQq-9" target="5veiTLs6AMyqryEThXQq-2">
          <mxGeometry relative="1" as="geometry">
            <Array as="points">
              <mxPoint x="599" y="610" />
              <mxPoint x="599" y="610" />
            </Array>
          </mxGeometry>
        </mxCell>
        <mxCell id="5veiTLs6AMyqryEThXQq-14" style="edgeStyle=orthogonalEdgeStyle;rounded=0;orthogonalLoop=1;jettySize=auto;html=1;entryX=0.5;entryY=1;entryDx=0;entryDy=0;fillColor=#f5f5f5;gradientColor=#b3b3b3;strokeColor=#666666;startArrow=classic;startFill=1;" edge="1" parent="1" source="5veiTLs6AMyqryEThXQq-9" target="5veiTLs6AMyqryEThXQq-6">
          <mxGeometry relative="1" as="geometry">
            <Array as="points">
              <mxPoint x="599" y="482" />
              <mxPoint x="410" y="482" />
            </Array>
          </mxGeometry>
        </mxCell>
        <mxCell id="5veiTLs6AMyqryEThXQq-9" value="FRCM" style="rounded=1;whiteSpace=wrap;html=1;fillColor=#dae8fc;strokeColor=#6c8ebf;gradientColor=#7ea6e0;" vertex="1" parent="1">
          <mxGeometry x="509" y="510" width="180" height="80" as="geometry" />
        </mxCell>
      </root>
    </mxGraphModel>
  </diagram>
</mxfile>
